<?xml version="1.0" encoding="utf-8"?>
<!DOCTYPE svg PUBLIC "-//W3C//DTD SVG 1.1//EN" "http://www.w3.org/Graphics/SVG/1.1/DTD/svg11.dtd">
<svg version="1.1" id="Layer_1" xmlns="http://www.w3.org/2000/svg" xmlns:xlink="http://www.w3.org/1999/xlink" x="0px" y="0px"
	 width="412.777px" height="259.063px" viewBox="0 0 412.777 259.063" enable-background="new 0 0 412.777 259.063"
	 xml:space="preserve">
<path fill="#39C0C4" d="M24.797,203.771V122.08H0V92.16h24.797V27.619H56.15V92.16h156.714l-19.004,29.92H56.15v80.947
	c0,13.501,11.668,26.276,24.807,26.276h124.005l8.023,29.901H80.231C49.595,259.205,24.797,234.761,24.797,203.771z"/>
<path fill="#363795" d="M383.34,0h29.438v254.89H383.34v-18.389c-14.756,12.486-33.23,21.869-52.736,21.869
	c-21.914,0-42.463-8.332-58.232-23.972c-15.379-15.973-23.933-36.801-23.933-59.031c0-22.232,8.554-43.054,23.933-59.019
	c15.77-15.654,36.318-23.965,58.232-23.965c19.506,0,37.98,9.368,52.736,21.874V0z M383.34,175.367
	c0-29.517-23.633-53.821-52.736-53.821c-29.131,0-52.736,24.305-52.736,53.821c0,29.521,23.605,53.825,52.736,53.825
	C359.707,229.192,383.34,204.888,383.34,175.367z"/>
<path fill="#39C0C4" d="M260.609,240.73c-6.416-6.667-11.399-14.291-15.555-22.27c-8.973,6.955-19.963,11.363-32.05,11.363
	c-29.689,0-53.806-24.435-53.806-54.143c0-29.696,24.117-54.15,53.806-54.15c11.911,0,22.659,4.306,31.575,10.939
	c4.239-8.312,9.381-16.244,16.03-23.146c0.482-0.442,1.014-0.753,1.486-1.186c-14.197-10.307-31.119-15.95-49.091-15.95
	c-22.362,0-43.682,8.377-59.386,24.114c-15.712,16.054-24.435,37.02-24.435,59.38c0,22.362,8.723,43.318,24.435,59.405
	c15.705,15.714,37.024,24.118,59.386,24.118c18.326,0,35.555-5.932,49.863-16.624C262.152,241.902,261.326,241.428,260.609,240.73z"
	/>
</svg>
